<?xml version="1.0" encoding="UTF-8"?>
<svg version="1.1" xmlns="http://www.w3.org/2000/svg" width="1040" height="1042">
<path d="M0 0 C343.2 0 686.4 0 1040 0 C1040 343.86 1040 687.72 1040 1042 C696.8 1042 353.6 1042 0 1042 C0 698.14 0 354.28 0 0 Z " fill="#FEFEFE" transform="translate(0,0)"/>
<path d="M0 0 C20.72821169 0 20.72821169 0 27.8125 0.734375 C29.03373817 0.85107796 29.03373817 0.85107796 30.27964783 0.97013855 C32.85423127 1.21992543 35.42708221 1.48364286 38 1.75 C38.89252472 1.83992218 39.78504944 1.92984436 40.70462036 2.02249146 C55.55801772 3.52237826 70.29913633 5.36969261 85 8 C86.62397705 8.28810547 86.62397705 8.28810547 88.28076172 8.58203125 C106.52203619 11.85779958 124.63905408 15.54153904 142.15234375 21.69140625 C145.43272617 22.83841558 148.75032342 23.83545979 152.078125 24.8359375 C159.09349639 26.98329563 165.95523931 29.45785487 172.8125 32.0625 C173.43329437 32.29788483 174.05408875 32.53326965 174.69369507 32.77578735 C187.39740397 37.61050779 199.76040506 43.09010412 212 49 C212.75023437 49.3619043 213.50046875 49.72380859 214.2734375 50.09667969 C218.21515648 52.01075791 222.12756346 53.97589996 226.02197266 55.984375 C228.12675225 57.06508138 230.24101285 58.12586403 232.35546875 59.1875 C251.9028169 69.11614666 270.34262381 81.02811921 288 94 C289.06089844 94.77730469 290.12179687 95.55460937 291.21484375 96.35546875 C294.16370578 98.54483412 297.08703624 100.763122 300 103 C300.8048584 103.61560791 300.8048584 103.61560791 301.62597656 104.24365234 C320.23477705 118.51397456 337.39494028 134.33738829 354 150.875 C354.78922852 151.65955566 355.57845703 152.44411133 356.39160156 153.25244141 C361.1331512 158.00710039 365.63805618 162.89641921 370 168 C370.97329843 169.11776245 371.94722917 170.23497473 372.921875 171.3515625 C413.42722978 218.10752565 444.74968695 271.94200863 466 330 C466.57935932 331.55471275 467.15877992 333.10940267 467.73828125 334.6640625 C478.51402575 363.95458759 485.60382794 395.05105112 489.59863281 425.96484375 C489.9907253 428.92986429 490.42078519 431.88646011 490.8671875 434.84375 C491.00600342 435.77018311 491.14481934 436.69661621 491.2878418 437.65112305 C491.53957084 439.32742012 491.79335001 441.00341185 492.05004883 442.67895508 C493.79261919 454.63179992 494.17196928 466.66715106 494.2734375 478.73046875 C494.27971664 479.40775528 494.28599579 480.08504181 494.29246521 480.78285217 C494.33855118 485.91770572 494.36236531 491.05246239 494.375 496.1875 C494.37700661 496.9437479 494.37901321 497.6999958 494.38108063 498.47916031 C494.43399814 524.30081396 493.17475733 549.47539321 489 575 C488.75667025 576.52989571 488.51366751 578.05984347 488.27099609 579.58984375 C484.81557253 601.12391811 480.57861308 622.6985908 473.2734375 643.29296875 C472.16002658 646.53415576 471.15435887 649.78122284 470.16796875 653.0625 C468.0197192 660.08335194 465.54409702 666.95010054 462.9375 673.8125 C462.70211517 674.43329437 462.46673035 675.05408875 462.22421265 675.69369507 C457.38949221 688.39740397 451.90989588 700.76040506 446 713 C445.6380957 713.75023437 445.27619141 714.50046875 444.90332031 715.2734375 C442.98924209 719.21515648 441.02410004 723.12756346 439.015625 727.02197266 C437.93491862 729.12675225 436.87413597 731.24101285 435.8125 733.35546875 C425.88385334 752.9028169 413.97188079 771.34262381 401 789 C400.22269531 790.06089844 399.44539063 791.12179687 398.64453125 792.21484375 C396.45516588 795.16370578 394.236878 798.08703624 392 801 C391.58959473 801.53657227 391.17918945 802.07314453 390.75634766 802.62597656 C376.48602544 821.23477705 360.66261171 838.39494028 344.125 855 C343.34044434 855.78922852 342.55588867 856.57845703 341.74755859 857.39160156 C336.99289961 862.1331512 332.10358079 866.63805618 327 871 C325.88223755 871.97329843 324.76502527 872.94722917 323.6484375 873.921875 C295.49377244 898.31266112 264.77582899 918.99053546 232.11669922 936.83740234 C230.22775697 937.87490442 228.34902663 938.92828526 226.47265625 939.98828125 C205.00534594 951.8653842 181.98108211 960.56523611 159 969 C158.03408936 969.3623877 157.06817871 969.72477539 156.07299805 970.09814453 C150.05413524 972.33823767 144.01907773 974.22931213 137.8125 975.875 C136.86528076 976.12765625 135.91806152 976.3803125 134.94213867 976.640625 C132.95045498 977.16916771 130.95801234 977.69485827 128.96484375 978.21777344 C126.12851501 978.96609337 123.29873299 979.73590747 120.46875 980.5078125 C102.86105656 985.20749497 84.97596216 988.12375638 67 991 C65.85426514 991.18997559 64.70853027 991.37995117 63.52807617 991.57568359 C55.92985049 992.80634591 48.36434353 993.58518737 40.6875 994.125 C39.61177734 994.21136719 38.53605469 994.29773438 37.42773438 994.38671875 C25.55590741 995.24197901 14.00527667 995 2 995 C2 973.88 2 952.76 2 931 C10.91 930.67 19.82 930.34 29 930 C52.25991813 927.68503184 75.20360375 924.16048494 98 919 C99.22098389 918.73517822 100.44196777 918.47035645 101.69995117 918.19750977 C112.53586275 915.7984437 122.96022403 912.58028267 133.4375 908.9375 C134.67448639 908.51040237 134.67448639 908.51040237 135.9364624 908.07467651 C180.66678952 892.59267534 222.4672086 870.93152671 260 842 C260.56460937 841.566875 261.12921875 841.13375 261.7109375 840.6875 C268.63311249 835.36740045 275.36083982 829.93991461 281.79296875 824.02734375 C283.72829285 822.24958586 285.69403016 820.52423748 287.6875 818.8125 C300.55834016 807.62629919 300.55834016 807.62629919 312.1484375 795.1640625 C314.20824715 792.75660565 316.37170667 790.47056021 318.55102539 788.17163086 C325.04549542 781.3038618 331.00626931 774.17926918 336.7265625 766.65869141 C337.91194339 765.11469643 339.12676207 763.59342535 340.34375 762.07421875 C358.47128583 739.26373616 372.89801627 713.93415348 386 688 C386.41137207 687.18805176 386.82274414 686.37610352 387.24658203 685.53955078 C401.83209348 656.49706155 413.09313479 624.40757875 419.49414062 592.51904297 C420.00427713 589.97870104 420.53904789 587.44449982 421.078125 584.91015625 C422.81341478 576.64196382 424.33996865 568.35022302 425.625 560 C425.73602051 559.29085449 425.84704102 558.58170898 425.96142578 557.85107422 C426.34603047 555.23794042 426.67681838 552.62150012 427 550 C427.08258057 549.36531799 427.16516113 548.73063599 427.25024414 548.07672119 C429.08965813 533.62589746 429.30902124 519.26619075 429.26074219 504.71191406 C429.25007427 500.90152866 429.26067079 497.09162071 429.2734375 493.28125 C429.30091219 446.3472849 421.91035738 399.26632934 406 355 C405.69803711 354.14132324 405.39607422 353.28264648 405.08496094 352.39794922 C385.30317893 296.49894385 353.73937387 245.89538163 313.43554688 202.55322266 C311.92013585 200.91358916 310.41994273 199.26095577 308.921875 197.60546875 C304.24202131 192.44918761 299.59034503 187.39256073 294.234375 182.921875 C291.80586926 180.83302041 289.49159957 178.64776955 287.16723633 176.44458008 C280.30053076 169.95203093 273.17762083 163.99247692 265.65869141 158.2734375 C264.11469643 157.08805661 262.59342535 155.87323793 261.07421875 154.65625 C212.40434021 115.97820083 151.22078957 86.87683318 90 75 C88.94619141 74.7932666 87.89238281 74.5865332 86.80664062 74.37353516 C57.83322846 68.77173521 29.57663734 66.01988405 0 65 C0 43.55 0 22.1 0 0 Z " fill="#7554AF" transform="translate(523,20)"/>
<path d="M0 0 C165.6530303 0 165.6530303 0 196.0625 29.5625 C225.10187289 58.79054234 232.2965384 99.55866044 232.25 139.1875 C232.24931519 140.0237088 232.24863037 140.8599176 232.2479248 141.72146606 C232.21107187 155.36626394 231.85004919 168.75142307 228.875 182.125 C228.65618164 183.11000488 228.43736328 184.09500977 228.21191406 185.10986328 C223.34946719 206.03996572 214.64578948 225.33590392 201 242 C200.45085937 242.71285156 199.90171875 243.42570313 199.3359375 244.16015625 C184.18658153 262.92893963 158.27872951 272.75180518 135 276 C90.11312709 279.20620521 45.00123455 277 0 277 C0 185.59 0 94.18 0 0 Z " fill="#000000" transform="translate(279,558)"/>
<path d="M0 0 C27.72 0 55.44 0 84 0 C86.61603396 7.84810188 88.9682787 15.4358293 90.875 23.4375 C92.74129829 31.0925868 94.7179538 38.68980919 96.9375 46.25 C99.68884858 55.64606369 102.05392734 65.12072922 104.39208984 74.62695312 C106.35683383 82.56395529 108.50179483 90.42378394 110.80078125 98.26953125 C112.99373515 105.81655878 114.87876587 113.42749555 116.75024414 121.05957031 C118.57460387 128.44255395 120.60915631 135.74372566 122.7434082 143.04223633 C125.00901111 150.86231638 126.98764708 158.74501645 128.90820312 166.65625 C130.41697858 172.83504471 132.10879947 178.92711734 134 185 C136.27810454 180.04367057 137.7859902 175.32102492 138.9375 170 C139.27945884 168.48657334 139.62324308 166.9735581 139.96875 165.4609375 C140.14019531 164.7090918 140.31164062 163.95724609 140.48828125 163.18261719 C141.68145113 158.09342885 143.08860113 153.05880534 144.45703125 148.01464844 C145.46778071 144.26433163 146.4511419 140.50679095 147.4375 136.75 C147.86327167 135.13020582 148.28905299 133.51041417 148.71484375 131.890625 C148.92737793 131.08173828 149.13991211 130.27285156 149.35888672 129.43945312 C150.40489481 125.45936444 151.45251591 121.47970044 152.5 117.5 C152.91667468 115.91666878 153.33334134 114.33333544 153.75 112.75 C162.5 79.5 162.5 79.5 171.25 46.25 C171.55949585 45.0736499 171.55949585 45.0736499 171.87524414 43.87353516 C172.2907443 42.29499176 172.70659548 40.71654071 173.12280273 39.13818359 C174.18525837 35.10726106 175.24100264 31.07476765 176.28515625 27.0390625 C176.49914062 26.21599609 176.713125 25.39292969 176.93359375 24.54492188 C177.33307946 23.00777035 177.73046088 21.47006921 178.125 19.93164062 C179.87774105 13.20474137 181.94822543 6.66826736 184 0 C211.72 0 239.44 0 268 0 C268 91.41 268 182.82 268 277 C250.84 277 233.68 277 216 277 C215.67 206.71 215.34 136.42 215 64 C211.60438019 77.58107629 211.60438019 77.58107629 208.23852539 91.16943359 C207.72935288 93.23294521 207.22016117 95.29645208 206.71095276 97.35995483 C206.31686313 98.95738085 206.31686313 98.95738085 205.91481209 100.58707809 C204.19837739 107.54258389 202.4792271 114.49741916 200.76059818 121.45238304 C199.26107288 127.52132518 197.76248252 133.59049531 196.26586914 139.66015625 C194.80464919 145.58604119 193.34084596 151.51128288 191.8753643 157.43611526 C191.32314336 159.67062498 190.77182259 161.90535739 190.22148323 164.14033127 C187.5470355 174.99944395 184.820052 185.82859667 181.77940083 196.59138203 C179.74617696 203.81890763 177.94137354 211.09677954 176.16838837 218.39187813 C175.59084262 220.76764007 175.00950862 223.14244952 174.42730713 225.51707458 C172.98795156 231.39056711 171.55402325 237.26538019 170.12133789 243.14050293 C168.89722529 248.16002859 167.67038452 253.17886973 166.43946075 258.19672966 C165.86666733 260.53661676 165.29800591 262.87748386 164.72943115 265.21839905 C164.38201467 266.63596891 164.03439058 268.05348792 163.68652344 269.47094727 C163.38405701 270.71127213 163.08159058 271.95159698 162.7699585 273.22950745 C162 276 162 276 161 277 C159.31198015 277.09353163 157.62004793 277.11744791 155.92944336 277.11352539 C154.84839828 277.11344986 153.76735321 277.11337433 152.65354919 277.11329651 C150.889515 277.10555458 150.889515 277.10555458 149.08984375 277.09765625 C147.89267227 277.0962413 146.69550079 277.09482635 145.46205139 277.09336853 C141.62050934 277.08774979 137.77902457 277.07519411 133.9375 277.0625 C131.34049563 277.05748741 128.74349035 277.05292409 126.14648438 277.04882812 C119.76430321 277.03777427 113.3821557 277.02101792 107 277 C102.848236 262.49088189 99.17418626 247.87817962 95.5625 233.2265625 C94.95408886 230.76665621 94.3454416 228.3068083 93.73657227 225.84701538 C92.30647241 220.06722646 90.8786013 214.28689008 89.45190144 208.50626123 C87.68620925 201.35260592 85.91737179 194.19972918 84.1484375 187.046875 C82.33378348 179.7091027 80.5193051 172.3712883 78.70727539 165.03286743 C77.14042831 158.68802173 75.57136673 152.34372786 74 146 C73.76162163 145.03722137 73.52324326 144.07444275 73.2776413 143.08248901 C72.60421146 140.36533354 71.92892647 137.64864675 71.25292969 134.93212891 C70.96347221 133.76356322 70.96347221 133.76356322 70.66816711 132.57139015 C69.37101885 127.37114291 67.97056062 122.20506401 66.515625 117.046875 C63.97973878 108.03235055 61.66600376 98.96895196 59.40527344 89.88183594 C58.73988735 87.20938362 58.06935987 84.5382547 57.3984375 81.8671875 C56.96844756 80.14590886 56.53874887 78.42455742 56.109375 76.703125 C55.91148376 75.91560852 55.71359253 75.12809204 55.50970459 74.31671143 C55.32571106 73.57443298 55.14171753 72.83215454 54.95214844 72.06738281 C54.79180115 71.42440247 54.63145386 70.78142212 54.46624756 70.11895752 C53.87526361 67.43310994 53.45211333 64.71268 53 62 C52.67 132.95 52.34 203.9 52 277 C34.84 277 17.68 277 0 277 C0 185.59 0 94.18 0 0 Z " fill="#010101" transform="translate(256,198)"/>
<path d="M0 0 C165.67179487 0 165.67179487 0 190 24 C207.7658186 42.04725731 212.28939797 64.74560746 212.24438477 89.17211914 C211.9816533 110.68347256 204.66909637 132.58305001 189 148 C153.41902594 180.47836593 100.29895215 173.30763161 56 173 C56 207.32 56 241.64 56 277 C37.52 277 19.04 277 0 277 C0 185.59 0 94.18 0 0 Z " fill="#010101" transform="translate(559,558)"/>
<path d="M0 0 C1.14855469 0.19464844 2.29710937 0.38929688 3.48046875 0.58984375 C26.31767568 4.95084711 48.43885909 15.09633092 62.13769531 34.62158203 C71.79726411 48.97533434 77.08572568 64.56825822 77 82 C71.91815068 82.29132114 66.83597347 82.57576223 61.75341797 82.85449219 C60.0332665 82.94971885 58.31320869 83.04665647 56.59326172 83.14550781 C44.71471136 83.82666518 32.89789808 84.12950093 21 84 C19.69036892 80.78754025 18.61588191 77.67056766 17.75 74.3125 C15.00211153 65.12552958 10.0918387 57.31788062 2 52 C-9.12777403 46.22615499 -19.37769768 45.78587349 -31.6875 45.6875 C-33.47317383 45.64399414 -33.47317383 45.64399414 -35.29492188 45.59960938 C-48.36758063 45.50719798 -60.77975622 48.87848897 -70.875 57.4375 C-75.40022162 62.89438489 -76.5826518 67.25492191 -76.3359375 74.2578125 C-75.56529797 80.54838165 -72.94427944 84.51442456 -68.1875 88.625 C-54.27005593 98.63100554 -34.87849204 102.49115268 -18.40304565 106.22387695 C3.98146054 111.34110543 27.05176616 117.33600085 47 129 C47.85722656 129.49886719 48.71445312 129.99773437 49.59765625 130.51171875 C65.87929784 140.70519933 77.91364442 156.55876815 82.41015625 175.31640625 C82.60480469 176.20199219 82.79945313 177.08757812 83 178 C83.30744141 179.22009766 83.30744141 179.22009766 83.62109375 180.46484375 C86.58187791 193.71690528 86.02452393 208.07916003 82 221 C81.67128906 222.11503906 81.34257813 223.23007812 81.00390625 224.37890625 C74.65239243 244.0488193 62.20975314 260.12916761 44.15234375 270.39453125 C9.12205263 288.23523714 -36.38436601 290.5692547 -73.88867188 279.18212891 C-98.16491952 271.17699567 -117.06628473 255.2687468 -128.75 232.60546875 C-130.25491093 229.43386897 -131.65372962 226.24178603 -133 223 C-133.37898437 222.12214844 -133.75796875 221.24429688 -134.1484375 220.33984375 C-138.07957909 210.54154724 -140.1233056 199.54169493 -140 189 C-139.02240723 188.91435791 -138.04481445 188.82871582 -137.03759766 188.74047852 C-133.36599417 188.41866364 -129.6944619 188.09604236 -126.02294922 187.77319336 C-124.44223898 187.63430587 -122.86151022 187.49562905 -121.28076172 187.35717773 C-118.99181126 187.1566593 -116.7029205 186.95547716 -114.4140625 186.75390625 C-113.67266022 186.68873306 -112.93125793 186.62355988 -112.16738892 186.55641174 C-108.19122123 186.20406169 -104.2199477 185.82400267 -100.25 185.40625 C-96.94548149 185.06789497 -93.7005935 184.88999152 -90.375 184.9375 C-89.53710938 184.94652344 -88.69921875 184.95554687 -87.8359375 184.96484375 C-86.92714844 184.98224609 -86.92714844 184.98224609 -86 185 C-85.68546875 186.05058594 -85.3709375 187.10117187 -85.046875 188.18359375 C-79.81069601 205.46380836 -73.91001574 221.30927197 -57.23046875 230.53125 C-46.87731979 235.51234545 -37.47147461 236.32263008 -26.0625 236.25 C-24.85142578 236.25773438 -23.64035156 236.26546875 -22.39257812 236.2734375 C-7.45832469 236.24109477 6.85655671 233.62109439 18 223 C24.30116109 216.36127671 28.11237259 208.01501934 28.4375 198.8125 C28.12335384 192.20495902 26.16011064 186.3716743 21.60546875 181.4296875 C9.11083417 170.3030786 -9.91788408 167.05826732 -25.71707153 163.30413818 C-100.10785221 145.54877366 -100.10785221 145.54877366 -119.25390625 115.578125 C-129.9902623 97.89442965 -132.57190209 78.47983124 -129.38671875 58.0703125 C-128.484457 54.88258596 -127.38339904 52.00977469 -126 49 C-125.73687012 48.40960938 -125.47374023 47.81921875 -125.20263672 47.2109375 C-116.33403953 27.69701228 -100.73215541 14.08919263 -81 6 C-76.4140255 4.36514828 -71.72236568 3.17045137 -67 2 C-65.87335938 1.6596875 -64.74671875 1.319375 -63.5859375 0.96875 C-43.66550128 -4.41280575 -20.16432652 -3.56632694 0 0 Z " fill="#010101" transform="translate(706,195)"/>
<path d="M0 0 C0 21.45 0 42.9 0 65 C-9.24 65.33 -18.48 65.66 -28 66 C-32.97078736 66.36864129 -37.8697056 66.75548596 -42.8125 67.3125 C-44.00278809 67.44148682 -45.19307617 67.57047363 -46.41943359 67.70336914 C-57.70647976 68.98136134 -68.85531559 70.81974636 -80 73 C-80.81581543 73.15581543 -81.63163086 73.31163086 -82.47216797 73.47216797 C-133.39597961 83.26720196 -183.33277982 102.97901507 -227 131 C-227.75104004 131.48001465 -228.50208008 131.9600293 -229.27587891 132.45458984 C-245.16206132 142.67371169 -260.62672897 153.73262785 -275 166 C-275.88147705 166.74830078 -275.88147705 166.74830078 -276.78076172 167.51171875 C-283.49337631 173.21939003 -290.13202936 178.92201859 -296.26171875 185.26171875 C-298.01592858 187.01592858 -299.84821758 188.59558029 -301.75 190.1875 C-307.66599407 195.29624342 -312.80139325 201.18066408 -318 207 C-318.52255371 207.58313965 -319.04510742 208.1662793 -319.58349609 208.76708984 C-338.68021486 230.17071578 -355.39662349 253.32327397 -370 278 C-374.00162756 277.40978811 -376.85292779 276.15443329 -380.33203125 274.11328125 C-381.367229 273.5109668 -382.40242676 272.90865234 -383.46899414 272.28808594 C-384.57235107 271.63614258 -385.67570801 270.98419922 -386.8125 270.3125 C-388.54779544 269.29632161 -390.2830946 268.2801495 -392.0186615 267.26443481 C-393.21056366 266.56615077 -394.40185238 265.86681866 -395.59254456 265.16647339 C-399.71509155 262.7428734 -403.85894572 260.36071736 -408.015625 257.99609375 C-409.11672607 257.36598389 -410.21782715 256.73587402 -411.35229492 256.08666992 C-413.46348998 254.87878184 -415.57815653 253.67693774 -417.6965332 252.48168945 C-418.64359131 251.93601318 -419.59064941 251.39033691 -420.56640625 250.828125 C-421.40115479 250.3527832 -422.23590332 249.87744141 -423.09594727 249.38769531 C-425 248 -425 248 -426 245 C-425.1105957 243.00146484 -425.1105957 243.00146484 -423.67578125 240.7109375 C-423.14758789 239.86007568 -422.61939453 239.00921387 -422.07519531 238.13256836 C-421.20266113 236.76757202 -421.20266113 236.76757202 -420.3125 235.375 C-419.72178711 234.4372876 -419.13107422 233.4995752 -418.52246094 232.53344727 C-412.97680015 223.80753488 -407.10332655 215.34277277 -401 207 C-399.86498047 205.43765625 -399.86498047 205.43765625 -398.70703125 203.84375 C-392.4262053 195.33202959 -385.73188177 187.15597343 -379 179 C-378.52804199 178.42604492 -378.05608398 177.85208984 -377.56982422 177.26074219 C-367.08484846 164.54274997 -355.75222555 152.67472978 -344.125 141 C-343.34060547 140.21093262 -342.55621094 139.42186523 -341.74804688 138.60888672 C-336.99271021 133.86665849 -332.09713604 129.3702787 -327 125 C-325.79682271 123.94294585 -324.59497275 122.88437877 -323.39453125 121.82421875 C-315.49415965 114.8889029 -307.45825996 108.24659177 -299 102 C-298.33129883 101.50532227 -297.66259766 101.01064453 -296.97363281 100.50097656 C-276.20446229 85.19489851 -254.73880537 71.52459834 -232.10791016 59.15820312 C-230.24533301 58.13479961 -228.39329859 57.09225909 -226.54296875 56.046875 C-190.71897838 36.19563005 -150.74493915 22.4037378 -111 13 C-109.95021973 12.75008301 -108.90043945 12.50016602 -107.81884766 12.24267578 C-72.69847737 4.04601692 -36.0255415 0 0 0 Z " fill="#3281D2" transform="translate(517,20)"/>
<path d="M0 0 C2.02489727 1.48742947 2.95967634 2.68685322 4.19506836 4.86279297 C4.61151611 5.57604736 5.02796387 6.28930176 5.45703125 7.02416992 C6.11819946 8.18178833 6.11819946 8.18178833 6.79272461 9.36279297 C12.5718027 19.14375696 19.05350869 28.27271054 25.85522461 37.36279297 C26.3025293 37.96462402 26.74983398 38.56645508 27.21069336 39.18652344 C37.86468312 53.48335816 49.57264135 67.30742538 62.31225586 79.78466797 C63.85522461 81.36279297 63.85522461 81.36279297 66.29272461 84.36279297 C68.93244429 87.45319649 71.74159026 89.9589412 74.82788086 92.58544922 C76.70557593 94.23159808 78.43650159 95.94014413 80.16772461 97.73779297 C83.84098625 101.46922844 87.84704834 104.71453954 91.92553711 107.99169922 C94.79989631 110.31801393 97.60671057 112.71058291 100.41772461 115.11279297 C125.44945431 135.99418407 153.81890669 152.75609322 182.85522461 167.36279297 C183.71164551 167.79833496 184.56806641 168.23387695 185.45043945 168.68261719 C228.41565081 190.42012249 275.26355931 202.44764851 322.85522461 208.36279297 C323.62833984 208.46333984 324.40145508 208.56388672 325.19799805 208.66748047 C340.44414221 210.63215555 355.38854642 210.82945924 370.85522461 211.36279297 C370.85522461 232.48279297 370.85522461 253.60279297 370.85522461 275.36279297 C333.51160117 275.36279297 333.51160117 275.36279297 316.29272461 273.23779297 C314.36963136 273.01251157 312.44653561 272.78725158 310.5234375 272.56201172 C294.45635991 270.63043113 278.64700778 267.91440802 262.85522461 264.36279297 C261.48599854 264.06187744 261.48599854 264.06187744 260.08911133 263.75488281 C226.92156795 256.36950028 194.69621124 244.47270289 163.85522461 230.36279297 C163.00766602 229.98155273 162.16010742 229.6003125 161.28686523 229.20751953 C147.66900124 223.08113205 134.75079831 215.87699627 121.85522461 208.36279297 C120.98188477 207.85844727 120.10854492 207.35410156 119.20874023 206.83447266 C101.94972783 196.84692346 85.63838473 185.54209534 69.85522461 173.36279297 C69.32300293 172.95528809 68.79078125 172.5477832 68.24243164 172.12792969 C49.81945756 158.00170453 32.79657011 142.35836502 16.35522461 125.98779297 C15.61361084 125.25085205 14.87199707 124.51391113 14.10791016 123.75463867 C9.48569288 119.11883125 5.11808604 114.32897603 0.85522461 109.36279297 C-0.19027337 108.17147892 -1.2371184 106.9813455 -2.28540039 105.79248047 C-17.91147152 87.96992381 -32.00309144 69.05048839 -44.94213867 49.19042969 C-46.2078893 47.2668793 -47.50056789 45.36335253 -48.79711914 43.46044922 C-49.64256786 42.19899621 -50.48763395 40.93728665 -51.33227539 39.67529297 C-51.7315625 39.09875977 -52.13084961 38.52222656 -52.54223633 37.92822266 C-55.16552389 33.95662679 -55.16552389 33.95662679 -55.07592773 31.39233398 C-53.6855763 28.36192195 -51.66011087 27.56182805 -48.76586914 25.96435547 C-47.62762695 25.3261084 -46.48938477 24.68786133 -45.31665039 24.03027344 C-44.07209311 23.34901826 -42.82729605 22.66820094 -41.58227539 21.98779297 C-39.67462474 20.9296931 -37.76919016 19.86768621 -35.86404419 18.80508423 C-34.56284307 18.07946825 -33.26081086 17.35534075 -31.95797729 16.63265991 C-27.61426331 14.21492148 -23.33544695 11.70812103 -19.08618164 9.12841797 C-17.99829346 8.47276855 -16.91040527 7.81711914 -15.78955078 7.14160156 C-13.72304175 5.89056225 -11.66335649 4.62816793 -9.61132812 3.35351562 C-8.22022827 2.51892822 -8.22022827 2.51892822 -6.80102539 1.66748047 C-5.9947168 1.17231934 -5.1884082 0.6771582 -4.35766602 0.16699219 C-2.14477539 -0.63720703 -2.14477539 -0.63720703 0 0 Z " fill="#33CE30" transform="translate(147.144775390625,739.63720703125)"/>
<path d="M0 0 C3.83404835 1.43234259 7.29062018 3.20394594 10.83984375 5.23828125 C11.97583008 5.88796875 13.11181641 6.53765625 14.28222656 7.20703125 C15.50074773 7.90868628 16.71917023 8.61051268 17.9375 9.3125 C19.18580613 10.02876133 20.43417916 10.74490609 21.68261719 11.4609375 C32.84722266 17.87423384 43.94184852 24.40487184 55 31 C54.27980076 34.8436082 52.58061291 37.98564958 50.7890625 41.44140625 C50.11905811 42.74673576 49.44973495 44.05241512 48.78100586 45.35839844 C48.25311966 46.38604309 48.25311966 46.38604309 47.71456909 47.43444824 C39.92858624 62.641354 33.04184647 78.00579485 27 94 C26.66178223 94.89041992 26.32356445 95.78083984 25.97509766 96.69824219 C15.66791852 124.1384074 8.1234943 153.36921049 4.33984375 182.44726562 C4.10605006 184.20340561 3.855057 185.95731401 3.58984375 187.70898438 C0.84621574 206.06163122 0.70463744 224.3531582 0.6875 242.875 C0.68400543 244.09044495 0.68051086 245.30588989 0.6769104 246.5581665 C0.64440678 266.96940671 1.66770378 287.12493715 4.8125 307.3125 C5.06797607 308.98143311 5.06797607 308.98143311 5.32861328 310.68408203 C8.3717608 330.13995674 12.0477201 349.21460464 18 368 C18.37898438 369.21042969 18.75796875 370.42085937 19.1484375 371.66796875 C28.11211965 400.17635357 38.20116976 430.52739076 54.71850586 455.60961914 C55.14139893 456.39844482 55.56429199 457.18727051 56 458 C54.78416075 461.64751775 53.99712003 461.85255743 50.71484375 463.64453125 C49.8026709 464.15000488 48.89049805 464.65547852 47.95068359 465.17626953 C46.95633301 465.71622559 45.96198242 466.25618164 44.9375 466.8125 C42.84416043 467.97104661 40.75174287 469.13126042 38.66015625 470.29296875 C37.56977051 470.8967334 36.47938477 471.50049805 35.35595703 472.12255859 C29.82090217 475.21906462 24.34762308 478.41981721 18.875 481.625 C17.86300537 482.21643799 16.85101074 482.80787598 15.80834961 483.41723633 C10.55055846 486.47818354 10.55055846 486.47818354 5.37939453 489.68115234 C3 491 3 491 0 491 C-33.43882182 427.03957107 -56.54788616 361.16179953 -63 289 C-63.1016748 287.91033936 -63.20334961 286.82067871 -63.30810547 285.69799805 C-64.41445388 271.93866492 -64.33523704 258.10787054 -64.375 244.3125 C-64.37730118 243.61965157 -64.37960236 242.92680313 -64.38197327 242.21295929 C-64.43372495 223.49905079 -64.00190475 204.98018244 -61.75 186.375 C-61.64757996 185.52257721 -61.54515991 184.67015442 -61.43963623 183.79190063 C-59.86681271 171.0893408 -57.5021104 158.54780424 -55 146 C-54.7824707 144.89043945 -54.56494141 143.78087891 -54.34082031 142.63769531 C-46.00552551 100.72178734 -31.46644528 31.46644528 0 0 Z " fill="#D84C40" transform="translate(87,273)"/>
<path d="M0 0 C81.87390137 0 81.87390137 0 99.11328125 16.8125 C116.31772818 36.75968485 118.36723969 61.69069274 118.31567383 86.83764648 C118.31252993 90.03209112 118.33598997 93.22559208 118.36132812 96.41992188 C118.4336002 119.41320909 116.91105031 144.67055717 103 164 C102.278125 165.051875 101.55625 166.10375 100.8125 167.1875 C89.74021868 178.25978132 77.26181255 180.96509166 62 183 C41.54 183 21.08 183 0 183 C0 122.61 0 62.22 0 0 Z " fill="#FEFEFE" transform="translate(335,605)"/>
<path d="M0 0 C12.2821875 -0.061875 12.2821875 -0.061875 24.8125 -0.125 C27.35428955 -0.14320801 29.8960791 -0.16141602 32.51489258 -0.18017578 C42.6126572 -0.22350531 52.66221297 -0.17858104 62.71875 0.81640625 C63.45587723 0.88548187 64.19300446 0.9545575 64.95246887 1.02572632 C75.59095655 2.25430141 84.7486283 7.32898299 91.44921875 15.72265625 C98.20074656 25.63736837 98.92651141 35.34096672 98 47 C96.09940382 56.72051902 90.64188288 64.70550202 82.5625 70.375 C65.88451337 80.48795002 45.31641125 78.24986033 26.5625 78.125 C17.796875 78.08375 9.03125 78.0425 0 78 C0 52.26 0 26.52 0 0 Z " fill="#FEFEFE" transform="translate(615,605)"/>
</svg>
